<?xml version="1.0" standalone="no"?>
<!DOCTYPE svg PUBLIC "-//W3C//DTD SVG 20010904//EN"
 "http://www.w3.org/TR/2001/REC-SVG-20010904/DTD/svg10.dtd">
<svg version="1.0" xmlns="http://www.w3.org/2000/svg"
 width="420.000000pt" height="420.000000pt" viewBox="0 0 420.000000 420.000000"
 preserveAspectRatio="xMidYMid meet">
<metadata>
Created by potrace 1.11, written by Peter Selinger 2001-2013
</metadata>
<g transform="translate(0.000000,420.000000) scale(0.100000,-0.100000)"
fill="#000000" stroke="none">
<path d="M2700 3156 c-74 -12 -135 -25 -135 -29 0 -4 80 -65 177 -136 l177
-130 152 25 c84 13 154 26 155 27 7 7 -358 267 -373 266 -10 -1 -79 -11 -153
-23z"/>
<path d="M2070 3058 c-69 -10 -131 -21 -139 -24 -13 -4 40 -46 269 -211 l85
-61 143 23 c78 13 148 25 153 27 17 6 -343 268 -366 267 -11 -1 -76 -10 -145
-21z"/>
<path d="M1420 2956 l-135 -22 95 -70 c52 -38 135 -99 183 -134 l89 -64 125
18 c201 29 201 13 -5 164 -99 73 -188 132 -198 131 -11 -1 -80 -11 -154 -23z"/>
<path d="M970 2853 c0 -10 9 -72 20 -138 12 -73 16 -121 10 -123 -6 -2 -10
-68 -10 -160 l0 -156 38 37 38 37 155 0 c86 0 159 -3 163 -7 3 -4 -10 -24 -31
-45 l-37 -38 -143 0 -143 0 0 -645 0 -645 1080 0 1080 0 2 645 3 645 -140 0
-139 0 154 157 155 158 -155 3 -154 3 -161 -161 -161 -161 -159 3 -159 3 156
160 156 160 -162 -3 -161 -3 -160 -160 -161 -160 -156 3 -156 3 152 158 151
157 -150 0 -151 0 -34 -35 c-45 -46 -60 -45 -60 5 0 38 -7 48 -111 155 l-111
114 -124 3 c-76 2 -125 -1 -128 -7 -1 -5 -24 5 -49 23 -40 28 -47 30 -47 15z
m208 -75 c17 -17 15 -53 -3 -68 -38 -31 -96 27 -65 65 15 18 51 20 68 3z m0
-320 c17 -17 15 -53 -3 -68 -20 -17 -62 -5 -70 20 -14 44 41 80 73 48z m320 0
c27 -27 7 -78 -29 -78 -21 0 -49 26 -49 45 0 35 53 58 78 33z m-48 -383 l0
-45 -162 2 -163 3 -3 43 -3 42 165 0 166 0 0 -45z m1610 -140 l0 -25 -970 0
-970 0 0 25 0 25 970 0 970 0 0 -25z m0 -160 l0 -25 -230 0 -230 0 0 -215 0
-215 230 0 230 0 0 -25 0 -25 -970 0 -970 0 0 25 0 25 225 0 225 0 0 215 0
215 -225 0 -225 0 0 25 0 25 970 0 970 0 0 -25z"/>
<path d="M1620 1535 l0 -215 465 0 465 0 0 215 0 215 -465 0 -465 0 0 -215z"/>
</g>
</svg>
