<?xml version="1.0" standalone="no"?>
<!DOCTYPE svg PUBLIC "-//W3C//DTD SVG 20010904//EN"
 "http://www.w3.org/TR/2001/REC-SVG-20010904/DTD/svg10.dtd">
<svg version="1.0" xmlns="http://www.w3.org/2000/svg"
 width="153.000000pt" height="153.000000pt" viewBox="0 0 153.000000 153.000000"
 preserveAspectRatio="xMidYMid meet">
<metadata>
Created by potrace 1.11, written by Peter Selinger 2001-2013
</metadata>
<g transform="translate(0.000000,153.000000) scale(0.100000,-0.100000)"
fill="#000000" stroke="none">
<path d="M0 765 l0 -665 765 0 765 0 0 665 0 665 -765 0 -765 0 0 -665z m300
505 l0 -70 -105 0 -105 0 0 70 0 70 105 0 105 0 0 -70z m1140 0 l0 -70 -105 0
-105 0 0 70 0 70 105 0 105 0 0 -70z m-1140 -250 l0 -70 -105 0 -105 0 0 70 0
70 105 0 105 0 0 -70z m1140 0 l0 -70 -105 0 -105 0 0 70 0 70 105 0 105 0 0
-70z m-1140 -255 l0 -76 -102 3 -103 3 -3 59 c-2 32 -1 65 2 72 4 11 30 14
106 14 l100 0 0 -75z m1135 0 l0 -70 -102 -3 -103 -3 0 76 0 76 103 -3 102 -3
0 -70z m-1135 -255 l0 -70 -105 0 -105 0 0 70 0 70 105 0 105 0 0 -70z m1140
0 l0 -70 -105 0 -105 0 0 70 0 70 105 0 105 0 0 -70z m-1140 -250 l0 -70 -105
0 -105 0 0 70 0 70 105 0 105 0 0 -70z m1140 0 l0 -70 -105 0 -105 0 0 70 0
70 105 0 105 0 0 -70z"/>
</g>
</svg>
